/* XPM */
static char * wall_xpm[] = {
"64 64 10 1",
" 	c #606473",
".	c #48495C",
"+	c #252538",
"@	c #2C2D3E",
"#	c #27273A",
"$	c #5F6271",
"%	c #5F6372",
"&	c #2C2C3E",
"*	c #2D2D3F",
"=	c #5E6170",
"                                  ....                          ",
"                                  ....                          ",
"                                      ........++++              ",
"                                      ........++++              ",
"                                      ........++++              ",
"                                      ........++++              ",
"  ....                    ................++++      ....        ",
"  ....                    ................++++      ....        ",
"  ....                    ................++++      ....        ",
"  ....                    ................++++      ....        ",
"@@####++++++++++++++++++++++++++++++++++++....++++@@####++++++++",
"@@####++++++++++++++++++++++++++++++++++++....++++@@####++++++++",
"@@####++++++++++++++++++++++++++++++++++++....++++@@####++++++++",
"@@####++++++++++++++++++++++++++++++++++++....++++@@####++++++++",
"  $$$$$$$$++++                        ++++          $$$$$$$$++++",
"  $$$$$$$$++++                        ++++          $$$$$$$$++++",
"  $$$$$$$$++++                        ++++          $$$$$$$$++++",
"  $$$$$$$$++++                        ++++          $$$$$$$$++++",
"      %%%%&&&&                        ++++              %%%%&&&&",
"      %%%%&&&&                        ++++              %%%%&&&&",
"      %%%%&&&&                        ++++              %%%%&&&&",
"      %%%%&&&&                        ++++              %%%%&&&&",
"++++++++++    ****####++++++++++++++++    ++++++++++++++++++    ",
"++++++++++    ****####++++++++++++++++    ++++++++++++++++++    ",
"++++++++++    ****####++++++++++++++++    ++++++++++++++++++    ",
"++++++++++    ****####++++++++++++++++    ++++++++++++++++++    ",
"                  %%%%====++++            ........              ",
"                  %%%%====++++            ........              ",
"                  %%%%====++++            ........              ",
"                  %%%%====++++            ........              ",
"                      %%%%++++    ........                      ",
"                      %%%%++++    ........                      ",
"                      %%%%++++    ........                      ",
"                      %%%%++++    ........                      ",
"++++++++++++++++++++++++++    ++++++++++++++++++++++++++++++++++",
"++++++++++++++++++++++++++    ++++++++++++++++++++++++++++++++++",
"++++++++++++++++++++++++++    ++++++++++++++++++++++++++++++++++",
"++++++++++++++++++++++++++    ++++++++++++++++++++++++++++++++++",
"      ....++++                            ++++....      ....++++",
"      ....++++                            ++++....      ....++++",
"      ....++++                            ++++....      ....++++",
"      ....++++                            ++++....      ....++++",
"          ++++                ++++        ++++              ++++",
"          ++++                ++++        ++++              ++++",
"          ++++                ++++        ++++              ++++",
"          ++++                ++++        ++++              ++++",
"++    ++++....++++++++++++++++    ++++++++    ++++++    ++++....",
"++    ++++....++++++++++++++++    ++++++++    ++++++    ++++....",
"++    ++++....++++++++++++++++    ++++++++    ++++++    ++++....",
"++    ++++....++++++++++++++++    ++++++++    ++++++    ++++....",
"  ++++............++++                        ++++  ++++........",
"  ++++............++++                        ++++  ++++........",
"  ++++............++++                        ++++  ++++........",
"  ++++............++++                        ++++  ++++........",
"              ....++++                        ++++              ",
"              ....++++                        ++++              ",
"              ....++++                        ++++              ",
"              ....++++                        ++++              ",
"++++++++++++++++++    ++++++++++++++++++++++++    ++++++++++++++",
"++++++++++++++++++    ++++++++++++++++++++++++    ++++++++++++++",
"++++++++++++++++++    ++++++++++++++++++++++++    ++++++++++++++",
"++++++++++++++++++    ++++++++++++++++++++++++    ++++++++++++++",
"......                    ++++                    ......        ",
"......                    ++++                    ......        "};
